<svg width="568" height="320" viewBox="0 0 568 320" fill="none" xmlns="http://www.w3.org/2000/svg">
<g clip-path="url(#clip0_54870_493)">
<path d="M217.008 69.5878L220.546 56.6214L204.625 50.7275L202.856 62.5152L217.008 69.5878Z" fill="#A0616A"/>
<path opacity="0.1" d="M217.008 70.218L220.546 57.2516L211.17 53.2986L214.083 68.5847L217.008 70.218Z" fill="#1D1A22"/>
<path d="M296.704 138.312C298.606 135.329 296.346 130.49 291.657 127.503C289.604 126.195 287.426 125.46 285.466 125.296L282.748 123.612L246.848 99.3109C246.848 99.3109 222.523 71.5914 217.218 69.43C211.914 67.2686 207.511 70.6243 207.511 70.6243L205.129 76.6226L243.274 114.024L275.734 131.19L280.154 133.628C281.13 135.334 282.717 136.997 284.77 138.304C289.459 141.291 294.802 141.295 296.704 138.312Z" fill="#A0616A"/>
<path d="M204.168 56.3296C204.168 56.3296 198.051 59.119 196.614 65.6836C195.176 72.2483 241.473 114.766 241.473 114.766L257.338 106.06L204.168 56.3296Z" fill="#473765"/>
<path d="M232.634 42.8118C232.634 51.9261 225.242 59.3146 216.124 59.3146C207.005 59.3146 199.613 51.9261 199.613 42.8118C199.613 33.6976 207.005 26.3091 216.124 26.3091C225.242 26.3091 232.634 33.6976 232.634 42.8118Z" fill="#A0616A"/>
<path d="M254.747 282.396L265.95 310.097L272.437 303.614L274.795 291.237L265.361 279.449L254.747 282.396Z" fill="#A0616A"/>
<path d="M191.152 276.764L186.178 293.16L195.336 300.703L205.396 294.303L204.084 276.828L191.152 276.764Z" fill="#A0616A"/>
<path d="M224.379 117.664L225.853 141.534L189.294 135.05L191.652 120.316L224.379 117.664Z" fill="#A0616A"/>
<path d="M226.148 141.828L189.294 129.746C189.294 129.746 175.731 156.858 190.473 173.95C205.215 191.042 254.157 288.29 254.157 288.29L268.899 281.218L247.671 219.332L224.084 162.162L226.148 141.828Z" fill="#4A4453"/>
<path d="M184.301 161.146L196.496 223.446L188.936 279.038L206.538 280.898L221.286 212.442L215.971 167.08L184.301 161.146Z" fill="#4A4453"/>
<path d="M280.102 288.88H290.315C290.315 288.88 302.231 284.164 305.024 288.88C307.817 293.595 292.563 306.967 292.563 306.967C292.563 306.967 271.257 318.938 268.309 318.349C265.361 317.759 264.181 310.687 264.181 310.687L260.643 302.435L265.95 304.203C265.95 304.203 273.026 300.078 271.257 293.005L280.102 288.88Z" fill="#4A4453"/>
<path d="M189.051 293.819L186.658 288.432L182.786 296.6C182.786 296.6 174.02 305.005 185.694 309.497C197.368 313.988 211.436 318.062 211.436 318.062C211.436 318.062 229.518 315.195 228.442 309.868C227.366 304.542 225.417 303.059 225.417 303.059L218.206 302.804L206.594 291.191L198.451 296.096L189.051 293.819Z" fill="#4A4453"/>
<path d="M211.111 46.0533L216.418 45.464L226.148 35.7391C226.148 35.7391 234.993 40.4542 234.993 36.9179C234.993 20.4151 224.969 21.0045 216.713 19.8258C208.458 18.647 209.342 18.3523 206.689 22.7727C205.475 24.7942 201.087 26.0143 201.087 26.0143C201.087 26.0143 192.832 14.816 188.704 28.3718C184.576 41.9277 189.883 83.7739 185.756 87.3102C181.628 90.8465 202.704 94.3776 200.421 80.5297C198.139 66.6818 194.011 45.464 196.37 40.7489C198.728 36.0338 199.318 37.2126 199.318 37.2126C196.395 36.0197 194.485 57.031 205.506 58.0598L205.804 47.8215C205.804 47.8215 207.573 42.517 211.111 46.0533Z" fill="#4A4453"/>
<path d="M218.482 66.3871L200.792 59.3145L177.206 130.041L225.735 128.274L230.105 107.164C230.105 107.164 234.371 96.1775 230.833 89.6943C227.295 83.211 218.482 66.3871 218.482 66.3871Z" fill="#473765"/>
<path d="M172.45 184.862C175.976 185.165 179.219 180.921 179.695 175.384C179.904 172.96 179.547 170.69 178.784 168.878L179.018 165.69L183.931 122.632C183.931 122.632 193.078 87.4109 192.537 81.7109C191.996 76.0111 191.141 74.4978 191.141 74.4978L184.719 75.167L169.231 126.283L169.05 162.988L168.936 168.033C167.875 169.688 167.136 171.864 166.928 174.288C166.452 179.825 168.925 184.56 172.45 184.862Z" fill="#A0616A"/>
<path d="M202.266 64.9135C202.266 64.9135 196.959 60.7878 190.473 62.556C183.987 64.3241 167.738 125.031 167.738 125.031L182.807 135.05L202.266 64.9135Z" fill="#473765"/>
<path d="M503.933 50.0305L493.589 30.8301L479.182 42.2764L484.723 56.6767L503.933 50.0305Z" fill="#FFB6B6"/>
<path opacity="0.1" d="M503.933 50.0305L493.589 30.8301L479.182 42.2764L484.723 56.6767L503.933 50.0305Z" fill="#1D1A22"/>
<path d="M479.22 42.8684C488.723 42.8684 496.427 35.1681 496.427 25.6693C496.427 16.1705 488.723 8.47021 479.22 8.47021C469.716 8.47021 462.012 16.1705 462.012 25.6693C462.012 35.1681 469.716 42.8684 479.22 42.8684Z" fill="#FFB6B6"/>
<path d="M446.347 34.6279C444.977 29.7181 441.332 26.4448 438.206 27.3166C435.08 28.1885 433.657 32.8748 435.028 37.7862C435.549 39.7556 436.534 41.5717 437.901 43.0825L443.968 63.8122L453.64 60.7592L446.632 40.6476C447.019 38.647 446.921 36.5829 446.347 34.6279Z" fill="#FFB6B6"/>
<path d="M495.361 47.3443L464.032 70.7863L448.275 46.2126L437.871 46.0383C437.871 46.0383 439.277 86.8918 453.791 90.3433C468.305 93.7948 508.165 74.4354 509.546 62.4304C510.927 50.4255 495.361 47.3443 495.361 47.3443Z" fill="#473765"/>
<path d="M452.167 313.635L443.156 313.634L438.87 278.896L452.168 278.897L452.167 313.635Z" fill="#FFB6B6"/>
<path d="M421.296 313.431C421.015 313.903 420.867 315.428 420.867 315.977C420.867 317.665 422.237 319.033 423.926 319.033H451.83C452.982 319.033 453.916 318.1 453.916 316.948V315.787C453.916 315.787 455.296 312.297 452.454 307.996C452.454 307.996 448.922 311.364 443.644 306.088L442.088 303.27L430.821 311.506L424.576 312.274C423.21 312.442 421.999 312.248 421.296 313.431Z" fill="#4A4453"/>
<path d="M480.378 313.635L471.368 313.634L467.081 278.896L480.38 278.897L480.378 313.635Z" fill="#FFB6B6"/>
<path d="M449.507 313.431C449.227 313.903 449.079 315.428 449.079 315.977C449.079 317.665 450.448 319.033 452.137 319.033H480.041C481.193 319.033 482.127 318.1 482.127 316.948V315.787C482.127 315.787 483.508 312.297 480.666 307.996C480.666 307.996 477.133 311.364 471.855 306.088L470.299 303.27L459.033 311.506L452.788 312.274C451.422 312.442 450.21 312.248 449.507 313.431Z" fill="#4A4453"/>
<path d="M441.015 140.049L432.81 163.163L438.557 295.776L453.185 296.821L464.156 198.672L465.724 300.476L481.919 301.52L493.813 147.27C493.813 147.27 497.51 136.306 486.017 131.085C474.523 125.863 441.015 140.049 441.015 140.049Z" fill="#4A4453"/>
<path d="M438.6 138.708L495.436 144.186C495.436 144.186 493.589 121.662 509.105 98.0312C524.62 74.4 503.194 45.9686 503.194 45.9686L482.137 44.4917L459.234 54.8304L455.431 98.1151L438.6 138.708Z" fill="#473765"/>
<path d="M496.914 40.0609C496.914 40.0609 507.257 20.8605 499.869 12.7373C492.481 4.61406 487.678 -3.13993 478.813 1.29092C469.947 5.72178 450.368 17.9066 457.756 20.8605C465.144 23.8144 471.794 23.076 471.794 23.076C471.794 23.076 470.63 28.5944 474.537 30.6353C478.443 32.6762 481.029 35.9993 481.029 35.9993C481.029 35.9993 485.462 30.83 487.678 33.7839C489.895 36.7378 496.914 40.0609 496.914 40.0609Z" fill="#4A4453"/>
<path d="M446.304 43.3841L424.878 55.9382C424.878 55.9382 420.265 64.6196 432.73 70.4329L455.539 54.8305L461.734 60.2833L469.947 55.1997L464.036 36.7378L457.387 31.5685L451.476 32.3069L447.043 29.353L438.177 38.9532L446.304 43.3841Z" fill="#4A4453"/>
<path d="M451.839 48.3708C450.469 43.461 446.824 40.1877 443.698 41.0595C440.572 41.9314 439.15 46.6178 440.521 51.5291C441.041 53.4985 442.026 55.3146 443.393 56.8255L449.46 77.5551L459.132 74.5021L452.124 54.3905C452.511 52.39 452.414 50.3258 451.839 48.3708Z" fill="#FFB6B6"/>
<path d="M500.853 61.0872L469.525 84.5292L453.767 59.9555L443.364 59.7812C443.364 59.7812 444.769 100.635 459.283 104.086C473.797 107.538 513.657 88.1783 515.038 76.1734C516.419 64.1684 500.853 61.0872 500.853 61.0872Z" fill="#473765"/>
<path d="M105.633 209.513C105.633 211.843 99.9693 165.561 99.9693 165.561L58.7618 170.553C51.3229 171.454 46.2066 178.468 47.6234 185.823L55.3299 225.828C55.9934 226.633 57.0149 227.391 58.3281 228.102V318.727H63.9913V230.356C68.5492 231.742 74.4347 232.818 80.9809 233.515V318.727H86.6442V234.013C96.2213 234.68 106.711 234.568 116.293 233.489V318.727H121.956V232.715C123.67 232.438 125.34 232.126 126.953 231.777V318.727H132.616V230.323C135.696 229.388 138.456 228.283 140.778 226.994C161.765 215.34 105.633 207.182 105.633 209.513Z" fill="#473765"/>
<path d="M147.126 294.102L154.104 301.077L163.741 306.059L162.744 314.695L144.467 312.702L142.141 308.052L142.806 304.066L141.476 297.755L147.126 294.102Z" fill="#FFB6B6"/>
<path d="M161.415 311.374L161.986 304.046L181.686 313.367C181.686 313.367 183.212 317.685 178.461 318.349C173.711 319.013 142.141 319.013 142.141 317.353C142.141 315.692 141.277 307.189 141.277 307.189L160.418 312.702L161.415 311.374Z" fill="#4A4453"/>
<path d="M122.026 274.728L116.978 283.204L114.517 293.766L105.897 294.925L103.334 276.727L107.271 273.33L111.3 272.993L117.093 270.153L122.026 274.728Z" fill="#FFB6B6"/>
<path d="M108.791 292.82L116.038 291.57L111.845 312.949C111.845 312.949 108.033 315.489 106.22 311.05C104.407 306.611 96.6421 276.026 98.2526 275.617C99.8631 275.209 107.896 272.281 107.896 272.281L107.258 292.181L108.791 292.82Z" fill="#4A4453"/>
<path d="M100.136 116.115L99.1365 136.426L115.127 136.759V119.286L100.136 116.115Z" fill="#FFB6B6"/>
<path opacity="0.1" d="M100.136 116.115L99.1365 136.426L115.127 136.759V119.286L100.136 116.115Z" fill="#1D1A22"/>
<path d="M73.1524 200.023C73.1524 200.023 65.8235 219.002 71.1536 226.661C76.4837 234.319 101.468 238.648 101.468 238.648L111.795 248.304L139.112 300.913L155.102 297.25L132.45 243.309C132.45 243.309 119.124 221.666 114.127 218.669C109.13 215.673 99.8258 204.421 99.8258 204.421L73.1524 200.023Z" fill="#4A4453"/>
<path d="M118.458 201.688L128.72 208.952C128.72 208.952 165.096 218.67 153.437 241.312C141.777 263.954 124.454 280.269 124.454 280.269L109.13 271.612L133.782 236.983L90.4752 210.678L118.458 201.688Z" fill="#4A4453"/>
<path d="M211.731 174.077C216.554 175.047 219.962 178.32 219.344 181.387C218.726 184.455 214.316 186.154 209.492 185.184C207.56 184.822 205.743 184.004 204.192 182.796L183.812 178.429L185.56 170.378L205.918 174.229C207.816 173.715 209.809 173.663 211.731 174.077Z" fill="#FFB6B6"/>
<path d="M114.294 129.267H93.5638L78.3159 139.589L79.6484 180.211C79.6484 180.211 82.4346 190.412 72.9858 199.857C67.3226 205.517 69.3214 208.847 69.3214 208.847L102.968 211.511L123.122 205.684L115.793 187.37L117.126 181.71C117.126 181.71 130.784 172.054 128.452 162.064C126.12 152.075 123.122 131.431 123.122 131.431L114.294 129.267Z" fill="#A73989"/>
<path d="M163.066 163.619L122.854 131.408C122.854 131.408 115.025 133.534 116.038 140.911C117.051 148.287 134.899 166.945 134.899 166.945L165.583 180.859L200.717 182.654L202.164 172.385L163.066 163.619Z" fill="#A73989"/>
<path d="M109.63 125.604C117.357 125.604 123.622 119.343 123.622 111.619C123.622 103.896 117.357 97.6345 109.63 97.6345C101.903 97.6345 95.6387 103.896 95.6387 111.619C95.6387 119.343 101.903 125.604 109.63 125.604Z" fill="#FFB6B6"/>
<path d="M105.799 114.45C105.799 114.45 112.462 108.123 115.127 105.126C117.792 102.13 129.118 109.788 126.786 104.127C124.454 98.467 121.123 97.1351 121.123 97.1351C121.123 97.1351 115.127 85.1481 103.467 92.1405C103.467 92.1405 103.467 84.8152 94.1396 87.8119C84.8119 90.8086 80.4812 118.445 83.1463 121.109C85.8113 123.773 88.4764 125.771 86.4776 130.765C84.4788 135.76 86.4776 158.069 93.8064 161.065C101.135 164.062 102.468 166.181 100.469 170.948C98.4703 175.716 93.4733 186.371 102.801 183.707C112.129 181.044 102.135 184.373 106.132 175.716C110.13 167.059 119.791 163.063 112.129 155.405C104.467 147.747 104.8 131.764 103.134 130.099C101.468 128.434 98.331 114.569 98.331 114.569C98.331 114.569 103.8 111.12 105.799 114.45Z" fill="#4A4453"/>
<path d="M533.209 320H23.9518V318.289H533.209C533.526 318.289 533.783 318.672 533.783 319.144C533.783 319.617 533.526 320 533.209 320Z" fill="#4A4453"/>
<path d="M268.673 318.186H142.684C134.347 318.186 127.565 311.407 127.565 303.073V123.6C127.565 115.266 134.347 108.488 142.684 108.488H268.673C277.009 108.488 283.791 115.266 283.791 123.6V303.073C283.791 311.407 277.009 318.186 268.673 318.186Z" fill="#FEF7FF"/>
<path d="M268.672 320H142.684C133.346 320 125.75 312.407 125.75 303.074V123.6C125.75 114.266 133.346 106.673 142.684 106.673H268.672C278.01 106.673 285.606 114.266 285.606 123.6V303.074C285.606 312.407 278.01 320 268.672 320ZM142.684 107.933C134.041 107.933 127.011 114.961 127.011 123.6V303.074C127.011 311.712 134.041 318.74 142.684 318.74H268.672C277.314 318.74 284.345 311.712 284.345 303.074V123.6C284.345 114.961 277.314 107.933 268.672 107.933H142.684Z" fill="#4A4453"/>
<path d="M156.055 176.907L254.543 173.931C261.383 173.724 262.04 163.03 255.137 163.238L156.649 166.214C149.809 166.421 149.152 177.115 156.055 176.907Z" fill="#4A4453"/>
<path d="M156.055 212.604L254.543 209.628C261.383 209.421 262.04 198.727 255.137 198.935L156.649 201.911C149.809 202.118 149.152 212.813 156.055 212.604Z" fill="#4A4453"/>
<path d="M156.055 248.301L254.543 245.325C261.383 245.118 262.04 234.424 255.137 234.632L156.649 237.608C149.809 237.815 149.152 248.51 156.055 248.301Z" fill="#4A4453"/>
<path d="M134.775 226.103C138.299 229.533 139.386 234.13 137.202 236.372C135.018 238.613 130.391 237.65 126.866 234.219C125.439 232.868 124.356 231.194 123.709 229.339L108.959 214.62L114.797 208.804L129.808 223.078C131.682 223.676 133.385 224.713 134.775 226.103Z" fill="#FFB6B6"/>
<path d="M99.8028 189.035L84.812 139.755C84.812 139.755 77.15 137.092 73.8187 143.751C70.4874 150.41 74.6777 175.883 74.6777 175.883L92.1408 204.685L120.124 225.995L127.119 218.336L99.8028 189.035Z" fill="#A73989"/>
</g>
<defs>
<clipPath id="clip0_54870_493">
<rect width="568" height="320" fill="white"/>
</clipPath>
</defs>
</svg>
